<mxfile host="app.diagrams.net" agent="Mozilla/5.0 (Windows NT 10.0; Win64; x64) AppleWebKit/537.36 (KHTML, like Gecko) Chrome/134.0.0.0 Safari/537.36" version="26.1.1">
  <diagram name="PÃ¡gina-1" id="_XEazPH0jgUANQakg6KC">
    <mxGraphModel dx="600" dy="326" grid="1" gridSize="10" guides="1" tooltips="1" connect="1" arrows="1" fold="1" page="1" pageScale="1" pageWidth="827" pageHeight="1169" math="0" shadow="0">
      <root>
        <mxCell id="0" />
        <mxCell id="1" parent="0" />
        <mxCell id="dl99ZVLsb3P6r3GAkJ6L-15" value="" style="edgeStyle=orthogonalEdgeStyle;rounded=0;orthogonalLoop=1;jettySize=auto;html=1;endArrow=oval;endFill=1;" edge="1" parent="1" source="dl99ZVLsb3P6r3GAkJ6L-2" target="dl99ZVLsb3P6r3GAkJ6L-12">
          <mxGeometry relative="1" as="geometry" />
        </mxCell>
        <mxCell id="dl99ZVLsb3P6r3GAkJ6L-17" style="edgeStyle=orthogonalEdgeStyle;rounded=0;orthogonalLoop=1;jettySize=auto;html=1;endArrow=oval;startFill=0;endFill=0;" edge="1" parent="1" source="dl99ZVLsb3P6r3GAkJ6L-2" target="dl99ZVLsb3P6r3GAkJ6L-16">
          <mxGeometry relative="1" as="geometry" />
        </mxCell>
        <mxCell id="dl99ZVLsb3P6r3GAkJ6L-19" style="edgeStyle=orthogonalEdgeStyle;rounded=0;orthogonalLoop=1;jettySize=auto;html=1;endArrow=oval;endFill=0;" edge="1" parent="1" source="dl99ZVLsb3P6r3GAkJ6L-2" target="dl99ZVLsb3P6r3GAkJ6L-18">
          <mxGeometry relative="1" as="geometry" />
        </mxCell>
        <mxCell id="dl99ZVLsb3P6r3GAkJ6L-21" style="edgeStyle=orthogonalEdgeStyle;rounded=0;orthogonalLoop=1;jettySize=auto;html=1;endArrow=oval;endFill=0;" edge="1" parent="1" source="dl99ZVLsb3P6r3GAkJ6L-2" target="dl99ZVLsb3P6r3GAkJ6L-20">
          <mxGeometry relative="1" as="geometry" />
        </mxCell>
        <mxCell id="dl99ZVLsb3P6r3GAkJ6L-41" style="edgeStyle=orthogonalEdgeStyle;rounded=0;orthogonalLoop=1;jettySize=auto;html=1;endArrow=none;endFill=0;startFill=0;" edge="1" parent="1" source="dl99ZVLsb3P6r3GAkJ6L-44" target="dl99ZVLsb3P6r3GAkJ6L-37">
          <mxGeometry relative="1" as="geometry" />
        </mxCell>
        <mxCell id="dl99ZVLsb3P6r3GAkJ6L-2" value="ALUMNO" style="whiteSpace=wrap;html=1;align=center;" vertex="1" parent="1">
          <mxGeometry x="364" y="140" width="100" height="40" as="geometry" />
        </mxCell>
        <mxCell id="dl99ZVLsb3P6r3GAkJ6L-32" style="edgeStyle=orthogonalEdgeStyle;rounded=0;orthogonalLoop=1;jettySize=auto;html=1;endArrow=oval;endFill=1;" edge="1" parent="1" source="dl99ZVLsb3P6r3GAkJ6L-3" target="dl99ZVLsb3P6r3GAkJ6L-27">
          <mxGeometry relative="1" as="geometry" />
        </mxCell>
        <mxCell id="dl99ZVLsb3P6r3GAkJ6L-33" style="edgeStyle=orthogonalEdgeStyle;rounded=0;orthogonalLoop=1;jettySize=auto;html=1;endArrow=oval;endFill=0;" edge="1" parent="1" source="dl99ZVLsb3P6r3GAkJ6L-3" target="dl99ZVLsb3P6r3GAkJ6L-28">
          <mxGeometry relative="1" as="geometry" />
        </mxCell>
        <mxCell id="dl99ZVLsb3P6r3GAkJ6L-34" style="edgeStyle=orthogonalEdgeStyle;rounded=0;orthogonalLoop=1;jettySize=auto;html=1;endArrow=oval;endFill=0;" edge="1" parent="1" source="dl99ZVLsb3P6r3GAkJ6L-3" target="dl99ZVLsb3P6r3GAkJ6L-29">
          <mxGeometry relative="1" as="geometry" />
        </mxCell>
        <mxCell id="dl99ZVLsb3P6r3GAkJ6L-35" style="edgeStyle=orthogonalEdgeStyle;rounded=0;orthogonalLoop=1;jettySize=auto;html=1;endArrow=oval;endFill=0;" edge="1" parent="1" source="dl99ZVLsb3P6r3GAkJ6L-3" target="dl99ZVLsb3P6r3GAkJ6L-30">
          <mxGeometry relative="1" as="geometry" />
        </mxCell>
        <mxCell id="dl99ZVLsb3P6r3GAkJ6L-36" style="edgeStyle=orthogonalEdgeStyle;rounded=0;orthogonalLoop=1;jettySize=auto;html=1;endArrow=oval;endFill=0;" edge="1" parent="1" source="dl99ZVLsb3P6r3GAkJ6L-3" target="dl99ZVLsb3P6r3GAkJ6L-31">
          <mxGeometry relative="1" as="geometry" />
        </mxCell>
        <mxCell id="dl99ZVLsb3P6r3GAkJ6L-49" style="edgeStyle=orthogonalEdgeStyle;rounded=0;orthogonalLoop=1;jettySize=auto;html=1;endArrow=none;startFill=0;" edge="1" parent="1" source="dl99ZVLsb3P6r3GAkJ6L-59" target="dl99ZVLsb3P6r3GAkJ6L-48">
          <mxGeometry relative="1" as="geometry" />
        </mxCell>
        <mxCell id="dl99ZVLsb3P6r3GAkJ6L-3" value="PROFESOR" style="whiteSpace=wrap;html=1;align=center;" vertex="1" parent="1">
          <mxGeometry x="340" y="420" width="100" height="40" as="geometry" />
        </mxCell>
        <mxCell id="dl99ZVLsb3P6r3GAkJ6L-24" style="edgeStyle=orthogonalEdgeStyle;rounded=0;orthogonalLoop=1;jettySize=auto;html=1;exitX=0.5;exitY=1;exitDx=0;exitDy=0;endArrow=oval;endFill=1;" edge="1" parent="1" source="dl99ZVLsb3P6r3GAkJ6L-4" target="dl99ZVLsb3P6r3GAkJ6L-22">
          <mxGeometry relative="1" as="geometry" />
        </mxCell>
        <mxCell id="dl99ZVLsb3P6r3GAkJ6L-26" style="edgeStyle=orthogonalEdgeStyle;rounded=0;orthogonalLoop=1;jettySize=auto;html=1;exitX=0;exitY=0.5;exitDx=0;exitDy=0;endArrow=oval;endFill=0;" edge="1" parent="1" source="dl99ZVLsb3P6r3GAkJ6L-4" target="dl99ZVLsb3P6r3GAkJ6L-25">
          <mxGeometry relative="1" as="geometry" />
        </mxCell>
        <mxCell id="dl99ZVLsb3P6r3GAkJ6L-4" value="ASIGNATURA" style="whiteSpace=wrap;html=1;align=center;" vertex="1" parent="1">
          <mxGeometry x="80" y="280" width="100" height="40" as="geometry" />
        </mxCell>
        <mxCell id="dl99ZVLsb3P6r3GAkJ6L-12" value="Num_Matricula" style="text;html=1;align=center;verticalAlign=middle;whiteSpace=wrap;rounded=0;" vertex="1" parent="1">
          <mxGeometry x="470" y="60" width="100" height="20" as="geometry" />
        </mxCell>
        <mxCell id="dl99ZVLsb3P6r3GAkJ6L-14" style="edgeStyle=orthogonalEdgeStyle;rounded=0;orthogonalLoop=1;jettySize=auto;html=1;exitX=0.5;exitY=1;exitDx=0;exitDy=0;" edge="1" parent="1" source="dl99ZVLsb3P6r3GAkJ6L-12" target="dl99ZVLsb3P6r3GAkJ6L-12">
          <mxGeometry relative="1" as="geometry" />
        </mxCell>
        <mxCell id="dl99ZVLsb3P6r3GAkJ6L-16" value="Nombre" style="text;html=1;align=center;verticalAlign=middle;whiteSpace=wrap;rounded=0;" vertex="1" parent="1">
          <mxGeometry x="404" y="50" width="60" height="30" as="geometry" />
        </mxCell>
        <mxCell id="dl99ZVLsb3P6r3GAkJ6L-18" value="Fecha_Nacimiento" style="text;html=1;align=center;verticalAlign=middle;whiteSpace=wrap;rounded=0;" vertex="1" parent="1">
          <mxGeometry x="285" y="60" width="110" height="20" as="geometry" />
        </mxCell>
        <mxCell id="dl99ZVLsb3P6r3GAkJ6L-20" value="Telefono" style="text;html=1;align=center;verticalAlign=middle;whiteSpace=wrap;rounded=0;" vertex="1" parent="1">
          <mxGeometry x="580" y="50" width="60" height="30" as="geometry" />
        </mxCell>
        <mxCell id="dl99ZVLsb3P6r3GAkJ6L-22" value="Cod_asignatura" style="text;html=1;align=center;verticalAlign=middle;whiteSpace=wrap;rounded=0;" vertex="1" parent="1">
          <mxGeometry x="75" y="350" width="110" height="30" as="geometry" />
        </mxCell>
        <mxCell id="dl99ZVLsb3P6r3GAkJ6L-25" value="Nombre" style="text;html=1;align=center;verticalAlign=middle;whiteSpace=wrap;rounded=0;" vertex="1" parent="1">
          <mxGeometry x="10" y="350" width="60" height="30" as="geometry" />
        </mxCell>
        <mxCell id="dl99ZVLsb3P6r3GAkJ6L-27" value="Id_Profesor" style="text;html=1;align=center;verticalAlign=middle;whiteSpace=wrap;rounded=0;" vertex="1" parent="1">
          <mxGeometry x="144" y="480" width="66" height="30" as="geometry" />
        </mxCell>
        <mxCell id="dl99ZVLsb3P6r3GAkJ6L-28" value="NIF_Profesor" style="text;html=1;align=center;verticalAlign=middle;whiteSpace=wrap;rounded=0;" vertex="1" parent="1">
          <mxGeometry x="210" y="530" width="80" height="30" as="geometry" />
        </mxCell>
        <mxCell id="dl99ZVLsb3P6r3GAkJ6L-29" value="Nombre" style="text;html=1;align=center;verticalAlign=middle;whiteSpace=wrap;rounded=0;" vertex="1" parent="1">
          <mxGeometry x="510" y="540" width="60" height="30" as="geometry" />
        </mxCell>
        <mxCell id="dl99ZVLsb3P6r3GAkJ6L-30" value="Especialidad" style="text;html=1;align=center;verticalAlign=middle;whiteSpace=wrap;rounded=0;" vertex="1" parent="1">
          <mxGeometry x="414" y="540" width="80" height="30" as="geometry" />
        </mxCell>
        <mxCell id="dl99ZVLsb3P6r3GAkJ6L-31" value="Telefono" style="text;html=1;align=center;verticalAlign=middle;whiteSpace=wrap;rounded=0;" vertex="1" parent="1">
          <mxGeometry x="310" y="540" width="60" height="30" as="geometry" />
        </mxCell>
        <mxCell id="dl99ZVLsb3P6r3GAkJ6L-42" style="edgeStyle=orthogonalEdgeStyle;rounded=0;orthogonalLoop=1;jettySize=auto;html=1;endArrow=none;startFill=0;" edge="1" parent="1" source="dl99ZVLsb3P6r3GAkJ6L-43" target="dl99ZVLsb3P6r3GAkJ6L-4">
          <mxGeometry relative="1" as="geometry" />
        </mxCell>
        <mxCell id="dl99ZVLsb3P6r3GAkJ6L-37" value="MATRICULADO" style="shape=rhombus;perimeter=rhombusPerimeter;whiteSpace=wrap;html=1;align=center;" vertex="1" parent="1">
          <mxGeometry x="70" y="130" width="120" height="60" as="geometry" />
        </mxCell>
        <mxCell id="dl99ZVLsb3P6r3GAkJ6L-45" value="N:20" style="text;html=1;align=center;verticalAlign=middle;whiteSpace=wrap;rounded=0;" vertex="1" parent="1">
          <mxGeometry x="100" y="100" width="60" height="30" as="geometry" />
        </mxCell>
        <mxCell id="dl99ZVLsb3P6r3GAkJ6L-46" value="Curso" style="text;strokeColor=none;fillColor=none;spacingLeft=4;spacingRight=4;overflow=hidden;rotatable=0;points=[[0,0.5],[1,0.5]];portConstraint=eastwest;fontSize=12;whiteSpace=wrap;html=1;" vertex="1" parent="1">
          <mxGeometry x="20" y="80" width="50" height="30" as="geometry" />
        </mxCell>
        <mxCell id="dl99ZVLsb3P6r3GAkJ6L-47" style="edgeStyle=orthogonalEdgeStyle;rounded=0;orthogonalLoop=1;jettySize=auto;html=1;exitX=0;exitY=0.5;exitDx=0;exitDy=0;entryX=0.4;entryY=1;entryDx=0;entryDy=0;entryPerimeter=0;endArrow=oval;endFill=0;" edge="1" parent="1" source="dl99ZVLsb3P6r3GAkJ6L-37" target="dl99ZVLsb3P6r3GAkJ6L-46">
          <mxGeometry relative="1" as="geometry" />
        </mxCell>
        <mxCell id="dl99ZVLsb3P6r3GAkJ6L-50" style="edgeStyle=orthogonalEdgeStyle;rounded=0;orthogonalLoop=1;jettySize=auto;html=1;endArrow=none;startFill=0;" edge="1" parent="1" source="dl99ZVLsb3P6r3GAkJ6L-57" target="dl99ZVLsb3P6r3GAkJ6L-4">
          <mxGeometry relative="1" as="geometry" />
        </mxCell>
        <mxCell id="dl99ZVLsb3P6r3GAkJ6L-48" value="IMPARTIDA" style="shape=rhombus;perimeter=rhombusPerimeter;whiteSpace=wrap;html=1;align=center;" vertex="1" parent="1">
          <mxGeometry x="330" y="270" width="120" height="60" as="geometry" />
        </mxCell>
        <mxCell id="dl99ZVLsb3P6r3GAkJ6L-54" value="" style="edgeStyle=orthogonalEdgeStyle;rounded=0;orthogonalLoop=1;jettySize=auto;html=1;endArrow=none;endFill=0;startFill=0;" edge="1" parent="1" source="dl99ZVLsb3P6r3GAkJ6L-2" target="dl99ZVLsb3P6r3GAkJ6L-44">
          <mxGeometry relative="1" as="geometry">
            <mxPoint x="364" y="160" as="sourcePoint" />
            <mxPoint x="190" y="160" as="targetPoint" />
          </mxGeometry>
        </mxCell>
        <mxCell id="dl99ZVLsb3P6r3GAkJ6L-44" value="10:20" style="text;html=1;align=center;verticalAlign=middle;whiteSpace=wrap;rounded=0;" vertex="1" parent="1">
          <mxGeometry x="230" y="145" width="60" height="30" as="geometry" />
        </mxCell>
        <mxCell id="dl99ZVLsb3P6r3GAkJ6L-55" value="" style="edgeStyle=orthogonalEdgeStyle;rounded=0;orthogonalLoop=1;jettySize=auto;html=1;endArrow=none;startFill=0;" edge="1" parent="1" source="dl99ZVLsb3P6r3GAkJ6L-37" target="dl99ZVLsb3P6r3GAkJ6L-43">
          <mxGeometry relative="1" as="geometry">
            <mxPoint x="130" y="190" as="sourcePoint" />
            <mxPoint x="130" y="250" as="targetPoint" />
          </mxGeometry>
        </mxCell>
        <mxCell id="dl99ZVLsb3P6r3GAkJ6L-43" value="1:N" style="text;html=1;align=center;verticalAlign=middle;whiteSpace=wrap;rounded=0;" vertex="1" parent="1">
          <mxGeometry x="100" y="210" width="60" height="30" as="geometry" />
        </mxCell>
        <mxCell id="dl99ZVLsb3P6r3GAkJ6L-56" value="" style="edgeStyle=orthogonalEdgeStyle;rounded=0;orthogonalLoop=1;jettySize=auto;html=1;endArrow=none;startFill=0;" edge="1" parent="1" source="dl99ZVLsb3P6r3GAkJ6L-48" target="dl99ZVLsb3P6r3GAkJ6L-57">
          <mxGeometry relative="1" as="geometry">
            <mxPoint x="330" y="300" as="sourcePoint" />
            <mxPoint x="180" y="300" as="targetPoint" />
          </mxGeometry>
        </mxCell>
        <mxCell id="dl99ZVLsb3P6r3GAkJ6L-57" value="1:N" style="text;html=1;align=center;verticalAlign=middle;whiteSpace=wrap;rounded=0;" vertex="1" parent="1">
          <mxGeometry x="220" y="285" width="60" height="30" as="geometry" />
        </mxCell>
        <mxCell id="dl99ZVLsb3P6r3GAkJ6L-58" value="" style="edgeStyle=orthogonalEdgeStyle;rounded=0;orthogonalLoop=1;jettySize=auto;html=1;endArrow=none;startFill=0;" edge="1" parent="1" source="dl99ZVLsb3P6r3GAkJ6L-3" target="dl99ZVLsb3P6r3GAkJ6L-59">
          <mxGeometry relative="1" as="geometry">
            <mxPoint x="390" y="420" as="sourcePoint" />
            <mxPoint x="390" y="330" as="targetPoint" />
          </mxGeometry>
        </mxCell>
        <mxCell id="dl99ZVLsb3P6r3GAkJ6L-59" value="1:1" style="text;html=1;align=center;verticalAlign=middle;whiteSpace=wrap;rounded=0;" vertex="1" parent="1">
          <mxGeometry x="360" y="355" width="60" height="30" as="geometry" />
        </mxCell>
        <mxCell id="dl99ZVLsb3P6r3GAkJ6L-60" value="1:N" style="text;html=1;align=center;verticalAlign=middle;whiteSpace=wrap;rounded=0;" vertex="1" parent="1">
          <mxGeometry x="360" y="240" width="60" height="30" as="geometry" />
        </mxCell>
      </root>
    </mxGraphModel>
  </diagram>
</mxfile>
